<svg xmlns="http://www.w3.org/2000/svg" viewBox="0 0 347.86733 48.68105"><defs><style>.cls-1{fill:#061d69;}.cls-2{fill:gray;}</style></defs><g id="Capa_2" data-name="Capa 2"><g id="Capa_1-2" data-name="Capa 1"><path class="cls-1" d="M18.22152,35.89192A18.10584,18.10584,0,0,1,0,17.946,18.10584,18.10584,0,0,1,18.22152,0,18.10584,18.10584,0,0,1,36.44305,17.946,18.10584,18.10584,0,0,1,18.22152,35.89192Zm0-32.82253A15.03328,15.03328,0,0,0,3.06939,17.946,15.03328,15.03328,0,0,0,18.22152,32.82252,15.03327,15.03327,0,0,0,33.37365,17.946,15.03328,15.03328,0,0,0,18.22152,3.06939Z"/><path class="cls-1" d="M45.90021,48.13042H14.80912V16.41126H45.90021ZM17.87851,45.061H42.83082V19.48065H17.87851Z"/><path class="cls-2" d="M60.3478,41.44472H55.86147V19.93984H68.18764v3.73633H60.3478v5.54492h7.29589v3.72168H60.3478Z"/><path class="cls-2" d="M78.77846,24.66152a7.84168,7.84168,0,0,1,5.07422,1.44141,5.32671,5.32671,0,0,1,1.76562,4.38281v10.959H82.48451l-.86718-2.23632h-.11817a8.29848,8.29848,0,0,1-1.4414,1.4414,4.93907,4.93907,0,0,1-1.69141.82422,8.80705,8.80705,0,0,1-2.32422.26465,5.92132,5.92132,0,0,1-2.61035-.55859,4.141,4.141,0,0,1-1.81738-1.71387,5.85029,5.85029,0,0,1-.66114-2.93457,4.33461,4.33461,0,0,1,1.83789-3.86133,10.62457,10.62457,0,0,1,5.51661-1.375l2.85351-.08887v-.7207a2.41978,2.41978,0,0,0-.67676-1.89746,2.73557,2.73557,0,0,0-1.88281-.60254,8.22647,8.22647,0,0,0-2.33887.33789,18.2686,18.2686,0,0,0-2.29492.85352l-1.48535-3.03028A12.76852,12.76852,0,0,1,75.41713,25.058,14.11326,14.11326,0,0,1,78.77846,24.66152Zm2.38281,9.16406-1.73633.0586a4.97092,4.97092,0,0,0-3.02246.77929,2.37275,2.37275,0,0,0-.8457,1.89747,1.68012,1.68012,0,0,0,.60352,1.46386,2.63327,2.63327,0,0,0,1.57324.4336,3.60852,3.60852,0,0,0,2.43457-.85254,3.02679,3.02679,0,0,0,.99316-2.42774Z"/><path class="cls-2" d="M96.9142,41.73867a8.97379,8.97379,0,0,1-4.16211-.88965,5.84637,5.84637,0,0,1-2.61816-2.75781A11.05554,11.05554,0,0,1,89.23647,33.31,10.36941,10.36941,0,0,1,90.25893,28.39a6.39631,6.39631,0,0,1,2.83887-2.80176,9.39389,9.39389,0,0,1,4.21386-.89746,11.5592,11.5592,0,0,1,2.94922.33105,11.83591,11.83591,0,0,1,2.16992.78711l-1.32422,3.47071q-1.05907-.42627-1.9707-.69825a6.34533,6.34533,0,0,0-1.82422-.27246,3.30057,3.30057,0,0,0-1.95605.55176A3.24991,3.24991,0,0,0,94.1935,30.516a8.54453,8.54453,0,0,0-.38281,2.76465,7.63377,7.63377,0,0,0,.41211,2.707,3.24124,3.24124,0,0,0,1.1914,1.59571,3.33509,3.33509,0,0,0,1.89746.52246,7.62049,7.62049,0,0,0,2.48633-.375,9.51287,9.51287,0,0,0,2.11816-1.05176V40.518a7.53038,7.53038,0,0,1-2.15527.93359A11.77567,11.77567,0,0,1,96.9142,41.73867Z"/><path class="cls-2" d="M112.65346,38.16445A6.909,6.909,0,0,0,114.088,38.017a14.29433,14.29433,0,0,0,1.38965-.36719v3.33887a8.4763,8.4763,0,0,1-1.78711.53711,11.94846,11.94846,0,0,1-2.33106.21289,6.90879,6.90879,0,0,1-2.64062-.47852A3.67882,3.67882,0,0,1,106.88,39.598a6.75887,6.75887,0,0,1-.66894-3.30175V28.36758h-2.14746V26.47011l2.4707-1.5,1.29492-3.47167h2.86816v3.501h4.60352v3.36817H110.6974v7.92871a1.75477,1.75477,0,0,0,.53614,1.40429A2.0962,2.0962,0,0,0,112.65346,38.16445Z"/><path class="cls-2" d="M133.74623,33.19277a11.083,11.083,0,0,1-.55175,3.64746A7.23629,7.23629,0,0,1,131.591,39.5248a6.78319,6.78319,0,0,1-2.5293,1.65528,9.384,9.384,0,0,1-3.332.55859,8.789,8.789,0,0,1-3.18457-.55859,6.97261,6.97261,0,0,1-2.51562-1.65528,7.46649,7.46649,0,0,1-1.64746-2.68457,10.59535,10.59535,0,0,1-.58106-3.64746,10.08373,10.08373,0,0,1,.97168-4.63379,6.65961,6.65961,0,0,1,2.76465-2.88281,8.76182,8.76182,0,0,1,4.28027-.98535,8.33964,8.33964,0,0,1,4.09668.98535,6.99226,6.99226,0,0,1,2.80957,2.88281A9.66015,9.66015,0,0,1,133.74623,33.19277Zm-11.37011,0a9.02613,9.02613,0,0,0,.35253,2.7207,2.91374,2.91374,0,0,0,3.05958,2.22168,3.13007,3.13007,0,0,0,1.93457-.55957,3.20413,3.20413,0,0,0,1.08886-1.66211,9.23917,9.23917,0,0,0,.34473-2.7207,9.07764,9.07764,0,0,0-.34473-2.71387,3.09267,3.09267,0,0,0-1.09668-1.625,3.25056,3.25056,0,0,0-1.956-.54492,2.85985,2.85985,0,0,0-2.58106,1.22071A6.73828,6.73828,0,0,0,122.37612,33.19277Z"/><path class="cls-2" d="M146.632,24.69082c.2246,0,.4873.01269.78613.03711a6.10214,6.10214,0,0,1,.72851.09472l-.33886,4.207a2.90773,2.90773,0,0,0-.625-.11036q-.4043-.03662-.69825-.03613a6.41474,6.41474,0,0,0-1.68457.2207,4.18592,4.18592,0,0,0-1.46289.71289,3.4068,3.4068,0,0,0-1.02246,1.29493,4.61217,4.61217,0,0,0-.375,1.96289v8.37011h-4.48633V24.99941h3.39747l.6621,2.76563h.22071a6.95156,6.95156,0,0,1,1.21289-1.53711,5.832,5.832,0,0,1,1.66211-1.11817A4.88715,4.88715,0,0,1,146.632,24.69082Z"/><path class="cls-2" d="M153.383,18.557a3.11463,3.11463,0,0,1,1.7207.46289,1.90049,1.90049,0,0,1,.72168,1.72852,1.92038,1.92038,0,0,1-.72168,1.72851,3.347,3.347,0,0,1-3.44921,0,1.9283,1.9283,0,0,1-.71289-1.72851,1.90826,1.90826,0,0,1,.71289-1.72852A3.10735,3.10735,0,0,1,153.383,18.557Zm2.23633,6.44238V41.44472H151.133V24.99941Z"/><path class="cls-2" d="M169.66615,24.69082a6.11731,6.11731,0,0,1,4.23633,1.43359Q175.505,27.56,175.505,30.72109V41.44472h-4.48633V31.83926a4.57437,4.57437,0,0,0-.63964-2.66211,2.29856,2.29856,0,0,0-2.00782-.89746,2.89577,2.89577,0,0,0-2.80957,1.39746,8.69739,8.69739,0,0,0-.75,4.03027v7.7373h-4.48633V24.99941h3.42774l.60254,2.10352h.25a4.51849,4.51849,0,0,1,1.3164-1.38282,5.66794,5.66794,0,0,1,1.751-.77929A7.8844,7.8844,0,0,1,169.66615,24.69082Z"/><path class="cls-2" d="M184.93471,48.68105a9.56435,9.56435,0,0,1-5.25879-1.19824,3.80777,3.80777,0,0,1-1.81641-3.36133,3.51471,3.51471,0,0,1,.92676-2.48535,5.25543,5.25543,0,0,1,2.72071-1.42676,3.0007,3.0007,0,0,1-1.20606-.96386,2.369,2.369,0,0,1,.0293-2.98633,6.28371,6.28371,0,0,1,1.57422-1.22754,4.4116,4.4116,0,0,1-2.05176-1.79492,5.45324,5.45324,0,0,1-.75781-2.91211,5.63823,5.63823,0,0,1,.78711-3.05274,4.97959,4.97959,0,0,1,2.29394-1.91894,9.11063,9.11063,0,0,1,3.66992-.66211c.30469,0,.65723.01953,1.05957.05859.40137.03906.77246.084,1.11035.13281s.56641.08789.6836.11719h5.7373v2.28028l-2.57422.6621a4.26447,4.26447,0,0,1,.5293,1.16211,4.71781,4.71781,0,0,1,.17676,1.3086,4.9885,4.9885,0,0,1-1.8457,4.126,8.00073,8.00073,0,0,1-5.127,1.47852q-.77929-.044-1.4707-.11816a2.08187,2.08187,0,0,0-.51465.55957,1.17934,1.17934,0,0,0-.17676.61718.65469.65469,0,0,0,.27246.53711,1.96494,1.96494,0,0,0,.82325.32325,7.12939,7.12939,0,0,0,1.376.11035h2.794a6.37637,6.37637,0,0,1,4.126,1.16211,4.1551,4.1551,0,0,1,1.41993,3.41308A5.06148,5.06148,0,0,1,191.84,47.09316,12.52867,12.52867,0,0,1,184.93471,48.68105Zm.19043-2.92676a11.02673,11.02673,0,0,0,2.75879-.30175A4.25393,4.25393,0,0,0,189.65639,44.6a1.70994,1.70994,0,0,0,.61719-1.31641,1.32221,1.32221,0,0,0-.36035-.97851,2.09392,2.09392,0,0,0-1.08887-.50782,9.71012,9.71012,0,0,0-1.86035-.14648h-2.32422a3.90239,3.90239,0,0,0-1.47754.26465,2.4841,2.4841,0,0,0-1.03711.74218,1.72432,1.72432,0,0,0-.38281,1.11133A1.62752,1.62752,0,0,0,182.632,45.225,4.904,4.904,0,0,0,185.12514,45.75429Zm.7207-12.47363a2.1721,2.1721,0,0,0,1.85352-.7793,3.43507,3.43507,0,0,0,.58887-2.11816,3.45682,3.45682,0,0,0-.61036-2.22851,2.23394,2.23394,0,0,0-1.832-.74317,2.2708,2.2708,0,0,0-1.85254.74317,3.42156,3.42156,0,0,0-.61816,2.22851,3.3459,3.3459,0,0,0,.61035,2.11816A2.2178,2.2178,0,0,0,185.84584,33.28066Z"/><path class="cls-2" d="M218.48549,41.44472l-1.55859-5.11914h-7.83985l-1.55957,5.11914H202.6144L210.20424,19.851h5.5752l7.61914,21.59375ZM215.838,32.50136l-1.55859-5.001q-.148-.49951-.39063-1.28711-.2417-.78663-.48535-1.60352-.24169-.81591-.38965-1.41894-.14649.60206-.4043,1.49219-.25781.89063-.49316,1.68457-.23437.79394-.33789,1.13281l-1.54492,5.001Z"/><path class="cls-2" d="M230.23842,18.557v5.32422q0,.92724-.05176,1.83886-.05127.9126-.125,1.41211h.17676a5.67018,5.67018,0,0,1,1.76563-1.72851,5.30657,5.30657,0,0,1,2.89746-.71289,5.46468,5.46468,0,0,1,4.48632,2.16211q1.7212,2.1621,1.72071,6.33984a12.28287,12.28287,0,0,1-.79395,4.71387,6.22554,6.22554,0,0,1-2.22168,2.86816,5.76936,5.76936,0,0,1-3.30957.96387,5.39254,5.39254,0,0,1-2.85351-.64746,6.5514,6.5514,0,0,1-1.69141-1.45606h-.30859l-.75,1.80957h-3.42774V18.557Zm3.22168,9.72266a3.19823,3.19823,0,0,0-1.86816.48535,2.75332,2.75332,0,0,0-1.00782,1.45605,8.61635,8.61635,0,0,0-.3457,2.457v.48535a7.69581,7.69581,0,0,0,.70606,3.66993,2.684,2.684,0,0,0,2.57421,1.27246,2.49872,2.49872,0,0,0,2.19922-1.28028,6.89177,6.89177,0,0,0,.81641-3.6914,6.52753,6.52753,0,0,0-.82422-3.63379A2.57828,2.57828,0,0,0,233.4601,28.27969Z"/><path class="cls-2" d="M259.7599,33.19277a11.083,11.083,0,0,1-.55175,3.64746,7.23629,7.23629,0,0,1-1.60352,2.68457,6.78311,6.78311,0,0,1-2.5293,1.65528,9.38393,9.38393,0,0,1-3.332.55859,8.789,8.789,0,0,1-3.18457-.55859,6.9727,6.9727,0,0,1-2.51562-1.65528,7.46649,7.46649,0,0,1-1.64746-2.68457,10.59535,10.59535,0,0,1-.58106-3.64746,10.08373,10.08373,0,0,1,.97168-4.63379,6.65967,6.65967,0,0,1,2.76465-2.88281,8.76182,8.76182,0,0,1,4.28027-.98535,8.33964,8.33964,0,0,1,4.09668.98535,6.99226,6.99226,0,0,1,2.80957,2.88281A9.66015,9.66015,0,0,1,259.7599,33.19277Zm-11.37011,0a9.02611,9.02611,0,0,0,.35254,2.7207,2.91372,2.91372,0,0,0,3.05957,2.22168,3.13007,3.13007,0,0,0,1.93457-.55957,3.20413,3.20413,0,0,0,1.08886-1.66211,9.23884,9.23884,0,0,0,.34473-2.7207,9.07732,9.07732,0,0,0-.34473-2.71387,3.09267,3.09267,0,0,0-1.09668-1.625,3.25056,3.25056,0,0,0-1.956-.54492,2.85984,2.85984,0,0,0-2.58105,1.22071A6.73818,6.73818,0,0,0,248.38979,33.19277Z"/><path class="cls-2" d="M268.27651,48.68105a9.56431,9.56431,0,0,1-5.25879-1.19824,3.80777,3.80777,0,0,1-1.81641-3.36133,3.51466,3.51466,0,0,1,.92676-2.48535,5.25539,5.25539,0,0,1,2.7207-1.42676,3.00067,3.00067,0,0,1-1.20605-.96386,2.36907,2.36907,0,0,1,.02929-2.98633,6.28408,6.28408,0,0,1,1.57422-1.22754,4.41163,4.41163,0,0,1-2.05175-1.79492,5.45324,5.45324,0,0,1-.75782-2.91211,5.63832,5.63832,0,0,1,.78711-3.05274,4.97961,4.97961,0,0,1,2.29395-1.91894,9.11059,9.11059,0,0,1,3.66992-.66211c.30469,0,.65723.01953,1.05957.05859.40137.03906.77246.084,1.11035.13281s.56641.08789.68359.11719h5.73731v2.28028l-2.57422.6621a4.26477,4.26477,0,0,1,.5293,1.16211,4.71781,4.71781,0,0,1,.17676,1.3086,4.98848,4.98848,0,0,1-1.84571,4.126,8.0007,8.0007,0,0,1-5.127,1.47852q-.77929-.044-1.4707-.11816a2.08187,2.08187,0,0,0-.51465.55957,1.17925,1.17925,0,0,0-.17676.61718.65469.65469,0,0,0,.27246.53711,1.96494,1.96494,0,0,0,.82324.32325,7.1295,7.1295,0,0,0,1.376.11035h2.79394a6.37642,6.37642,0,0,1,4.126,1.16211,4.15509,4.15509,0,0,1,1.41992,3.41308,5.06147,5.06147,0,0,1-2.40527,4.47168A12.5287,12.5287,0,0,1,268.27651,48.68105Zm.19043-2.92676a11.02678,11.02678,0,0,0,2.75879-.30175A4.25393,4.25393,0,0,0,272.99819,44.6a1.70993,1.70993,0,0,0,.61718-1.31641,1.32217,1.32217,0,0,0-.36035-.97851,2.09388,2.09388,0,0,0-1.08887-.50782,9.71,9.71,0,0,0-1.86035-.14648h-2.32422a3.90234,3.90234,0,0,0-1.47753.26465,2.484,2.484,0,0,0-1.03711.74218,1.72433,1.72433,0,0,0-.38282,1.11133,1.62754,1.62754,0,0,0,.88965,1.45606A4.904,4.904,0,0,0,268.46694,45.75429Zm.7207-12.47363a2.17206,2.17206,0,0,0,1.85351-.7793A3.43507,3.43507,0,0,0,271.63,30.3832a3.45682,3.45682,0,0,0-.61035-2.22851,2.234,2.234,0,0,0-1.832-.74317,2.27079,2.27079,0,0,0-1.85254.74317,3.42156,3.42156,0,0,0-.61816,2.22851,3.3459,3.3459,0,0,0,.61035,2.11816A2.21778,2.21778,0,0,0,269.18764,33.28066Z"/><path class="cls-2" d="M287.22182,24.66152a7.84168,7.84168,0,0,1,5.07422,1.44141,5.32671,5.32671,0,0,1,1.76562,4.38281v10.959h-3.13379l-.86718-2.23632h-.11817a8.29848,8.29848,0,0,1-1.4414,1.4414,4.93916,4.93916,0,0,1-1.69141.82422,8.80705,8.80705,0,0,1-2.32422.26465,5.92132,5.92132,0,0,1-2.61035-.55859,4.141,4.141,0,0,1-1.81738-1.71387,5.85029,5.85029,0,0,1-.66114-2.93457,4.33461,4.33461,0,0,1,1.83789-3.86133,10.62457,10.62457,0,0,1,5.51661-1.375l2.85351-.08887v-.7207a2.41978,2.41978,0,0,0-.67676-1.89746,2.73557,2.73557,0,0,0-1.88281-.60254,8.22647,8.22647,0,0,0-2.33887.33789,18.2686,18.2686,0,0,0-2.29492.85352l-1.48535-3.03028a12.76852,12.76852,0,0,1,2.93457-1.08886A14.11326,14.11326,0,0,1,287.22182,24.66152Zm2.38281,9.16406-1.73633.0586a4.97092,4.97092,0,0,0-3.02246.77929,2.37275,2.37275,0,0,0-.8457,1.89747,1.68015,1.68015,0,0,0,.60351,1.46386,2.63333,2.63333,0,0,0,1.57325.4336,3.60854,3.60854,0,0,0,2.43457-.85254,3.02679,3.02679,0,0,0,.99316-2.42774Z"/><path class="cls-2" d="M303.88686,41.73867a5.474,5.474,0,0,1-4.47852-2.15527q-1.72851-2.15479-1.72851-6.332,0-4.22167,1.75-6.39062a5.59958,5.59958,0,0,1,4.57519-2.16992,6.117,6.117,0,0,1,2.07324.32324,5.13131,5.13131,0,0,1,1.55274.86816,5.84937,5.84937,0,0,1,1.11035,1.22071h.14648q-.08788-.47022-.21289-1.38965a14.08074,14.08074,0,0,1-.125-1.89063V18.557h4.501V41.44472h-3.44238l-.86719-2.13281h-.19141a5.44613,5.44613,0,0,1-1.0664,1.22754,4.87813,4.87813,0,0,1-1.52246.876A6.04394,6.04394,0,0,1,303.88686,41.73867Zm1.57422-3.57422a2.92967,2.92967,0,0,0,2.5957-1.0957,6.05921,6.05921,0,0,0,.80176-3.30274v-.48535a7.43774,7.43774,0,0,0-.73535-3.66992,2.88621,2.88621,0,0,0-2.73536-1.27246,2.63333,2.63333,0,0,0-2.32421,1.28027,6.73911,6.73911,0,0,0-.83887,3.69141,6.40074,6.40074,0,0,0,.8457,3.63379A2.74142,2.74142,0,0,0,305.46108,38.16445Z"/><path class="cls-2" d="M332.68764,33.19277a11.08278,11.08278,0,0,1-.55176,3.64746,7.23627,7.23627,0,0,1-1.60351,2.68457,6.78327,6.78327,0,0,1-2.5293,1.65528,9.384,9.384,0,0,1-3.332.55859,8.789,8.789,0,0,1-3.18457-.55859,6.97274,6.97274,0,0,1-2.51563-1.65528,7.46663,7.46663,0,0,1-1.64746-2.68457,10.59536,10.59536,0,0,1-.58105-3.64746A10.08373,10.08373,0,0,1,317.714,28.559a6.65965,6.65965,0,0,1,2.76464-2.88281,8.76184,8.76184,0,0,1,4.28028-.98535,8.33966,8.33966,0,0,1,4.09668.98535,6.99232,6.99232,0,0,1,2.80957,2.88281A9.66015,9.66015,0,0,1,332.68764,33.19277Zm-11.37012,0a9.02611,9.02611,0,0,0,.35254,2.7207,2.91374,2.91374,0,0,0,3.05957,2.22168,3.13007,3.13007,0,0,0,1.93457-.55957,3.20414,3.20414,0,0,0,1.08887-1.66211,9.23917,9.23917,0,0,0,.34473-2.7207,9.07764,9.07764,0,0,0-.34473-2.71387,3.09272,3.09272,0,0,0-1.09668-1.625,3.25057,3.25057,0,0,0-1.95606-.54492,2.85984,2.85984,0,0,0-2.58105,1.22071A6.73818,6.73818,0,0,0,321.31752,33.19277Z"/><path class="cls-2" d="M347.86733,36.56094a4.91406,4.91406,0,0,1-.78711,2.832,4.81438,4.81438,0,0,1-2.34571,1.75,10.95477,10.95477,0,0,1-3.88281.5957,16.9122,16.9122,0,0,1-2.94922-.2207,12.1189,12.1189,0,0,1-2.47851-.73536v-3.707a17.33975,17.33975,0,0,0,2.875.99317,11.17243,11.17243,0,0,0,2.69922.38965,3.41871,3.41871,0,0,0,1.876-.38965,1.19032,1.19032,0,0,0,.56543-1.02246,1.2726,1.2726,0,0,0-.22754-.74219,2.99578,2.99578,0,0,0-.97851-.751,25.84178,25.84178,0,0,0-2.35352-1.0957,15.272,15.272,0,0,1-2.53711-1.30859,4.32472,4.32472,0,0,1-1.4707-1.56641,4.91129,4.91129,0,0,1-.47852-2.30273,3.8326,3.8326,0,0,1,1.77246-3.43458,8.59246,8.59246,0,0,1,4.74415-1.15429,13.4233,13.4233,0,0,1,2.91992.30859,14.32654,14.32654,0,0,1,2.86035.98535L346.338,29.22109a23.76779,23.76779,0,0,0-2.30176-.86816A7.35826,7.35826,0,0,0,341.837,28.015a3.2713,3.2713,0,0,0-1.48632.26465.8628.8628,0,0,0-.5.80957,1.067,1.067,0,0,0,.25781.70507,3.253,3.253,0,0,0,1,.68457q.74267.375,2.18457.96289a17.51315,17.51315,0,0,1,2.42676,1.19922,4.62024,4.62024,0,0,1,1.58886,1.54493A4.52152,4.52152,0,0,1,347.86733,36.56094Z"/></g></g></svg>